PathFileType	4	(X/Y/Z)	C:\Users\T490\OneDrive\Desktop\110_Internship_Tasks\Sprint GSG Position Analysis\results\sports2d_output\sprint_video_Sports2D\sprint_video_Sports2D_px_person00.trc
DataRate	CameraRate	NumFrames	NumMarkers	Units	OrigDataRate	OrigDataStartFrame	OrigNumFrames
25.0	25.0	7	22	m	25.0	419	559
Frame#	Time	Hip			RHip			RKnee			RAnkle			RBigToe			RSmallToe			RHeel			LHip			LKnee			LAnkle			LBigToe			LSmallToe			LHeel			Neck			Head			Nose			RShoulder			RElbow			RWrist			LShoulder			LElbow			LWrist			
		X1	Y1	Z1	X2	Y2	Z2	X3	Y3	Z3	X4	Y4	Z4	X5	Y5	Z5	X6	Y6	Z6	X7	Y7	Z7	X8	Y8	Z8	X9	Y9	Z9	X10	Y10	Z10	X11	Y11	Z11	X12	Y12	Z12	X13	Y13	Z13	X14	Y14	Z14	X15	Y15	Z15	X16	Y16	Z16	X17	Y17	Z17	X18	Y18	Z18	X19	Y19	Z19	X20	Y20	Z20	X21	Y21	Z21	X22	Y22	Z22
419	16.790035842293907	1045.5607515337776	574.8577250666856	0.0	1037.3566154183877	576.7398746121786	0.0	972.4430503598167	640.356666799596	0.0	1073.8594807191503	639.1113599885052	0.0	1094.3042531553847	659.2574985317519	0.0	1098.0139090149225	656.933509296938	0.0	1096.7235549695342	624.184651305107	0.0	1053.211317095364	576.7342964174347	0.0	1044.228999651516	689.6204547973714	0.0	1151.6524051007686	647.2500569687365	0.0	1169.7290777859434	685.802023632479	0.0	1172.142878555706	680.6646888659245	0.0	1160.4906151207347	635.7607464888719	0.0	913.737346966959	526.6254424823535	0.0	851.0924020970149	568.2662468840321	0.0	894.8508373341252	565.9774239003755	0.0	928.7161458950513	509.92113493566524	0.0	939.2889015569507	591.8068873985121	0.0	946.5079907265767	667.4023761511078	0.0	926.7631249781542	521.4335169080994	0.0	939.0550618500682	591.5317622827815	0.0	947.7835908052652	656.7340201476645	0.0
420	16.830107526881722	1045.6841344700038	574.9453812969824	0.0	1038.0585053318182	576.2607656299718	0.0	972.5350688246307	640.3159967042722	0.0	1073.6191274037699	639.2358703698739	0.0	1092.94557603763	658.7180330686015	0.0	1097.0714180891594	656.5641477434102	0.0	1097.4230103901648	624.7422504720239	0.0	1053.1677428310634	576.661056182935	0.0	1044.3611183357823	689.8017986077612	0.0	1151.5751743437431	647.220702550308	0.0	1169.5119904286262	685.9839152700487	0.0	1172.1538700991823	680.7622154879573	0.0	1160.4345319972876	635.6289175613646	0.0	913.6683198220535	526.6062912709714	0.0	851.0962078384281	568.264952548232	0.0	895.1503063188645	565.9530313618055	0.0	927.4950590559583	510.19114890874766	0.0	940.2614865178921	591.5952366698123	0.0	947.709924589605	665.6908942481626	0.0	926.9010408602718	521.6401250385957	0.0	939.1676913670649	592.0317151604745	0.0	947.4798964572203	657.7948109890435	0.0
421	16.870179211469534	1045.7443511052772	575.0791386296964	0.0	1037.909497399532	575.7823921851821	0.0	972.6517844394684	640.3056087940383	0.0	1073.4677576751067	639.3283763251525	0.0	1091.6192192573726	658.9699356042071	0.0	1096.6100522154584	656.6769060265308	0.0	1096.7395372827973	624.7839863131093	0.0	1053.308786682727	576.4210200330697	0.0	1044.4871487665528	689.9675756546287	0.0	1151.5704429902712	647.0092371736082	0.0	1169.5729428873892	686.1281808105018	0.0	1172.2150609346068	680.2019214951279	0.0	1160.9204554650341	635.038338972936	0.0	913.6103608093645	526.4499988506267	0.0	851.2220659524319	568.1667702949746	0.0	895.2157259727339	565.9301898252805	0.0	927.6749479115787	510.0878565671626	0.0	941.3508499571234	591.7795560001017	0.0	947.7665692057353	663.8755851364918	0.0	927.0136367456874	521.525151175585	0.0	939.5484707444566	592.8233987105616	0.0	947.5928224732993	657.6033806616899	0.0
422	16.91025089605735	1045.7590865309683	575.0793057611593	0.0	1037.0768139461516	575.9386308699077	0.0	972.6598352500068	640.3197506024035	0.0	1073.6107331650308	639.1572965726351	0.0	1092.3363991705646	659.5490283827314	0.0	1097.1236424365416	657.3111186612115	0.0	1096.0636495291021	624.3026390666904	0.0	1053.5332717771244	576.3215406967463	0.0	1044.4555242007207	689.9841920189856	0.0	1151.1767651921832	646.8813463881083	0.0	1169.5926202450391	686.4894472738721	0.0	1172.293121098089	680.3520406456745	0.0	1160.9878793294722	634.9308559179497	0.0	913.6924930214848	526.5097159138006	0.0	851.210506002842	567.6621157253385	0.0	894.6821117724224	565.9070044929491	0.0	928.9561283433708	509.9577155824859	0.0	940.1761631463514	593.0428987141833	0.0	946.4492482069447	664.7032140234106	0.0	926.9797995006049	520.7564597056167	0.0	939.9474676912314	592.9922770637958	0.0	947.7839906562208	655.4771237322165	0.0
423	16.95032258064516	1045.9304273548887	575.0399351226409	0.0	1037.270232764913	576.3093911682749	0.0	972.6176285959009	640.3267272520569	0.0	1073.9131844866906	638.7765963617976	0.0	1093.9646998737148	659.7557815310072	0.0	1097.0764903783852	656.966353360641	0.0	1096.9196781180585	624.3622317123087	0.0	1053.7044568173133	576.3840090365736	0.0	1044.3924206365068	689.9410684009987	0.0	1150.901144918328	646.9381070833691	0.0	1169.6975729765152	686.8794151455074	0.0	1172.3772000553952	681.1404233634499	0.0	1160.7319262817525	635.3068983368177	0.0	913.8091949075223	526.7939186647193	0.0	851.1830038861884	567.2259484254051	0.0	894.2567240829983	565.8960142577971	0.0	929.1986014558247	510.0009126858183	0.0	938.3688751782239	593.7453298546195	0.0	945.7740267877964	666.1860792924621	0.0	926.9882988663867	520.2426446142542	0.0	939.8323496525179	592.8881633549584	0.0	947.6851765431568	654.3948076050855	0.0
424	16.990394265232975	1046.1540332242234	575.1063881110513	0.0	1038.1238438695527	576.4654109479499	0.0	972.7274785554508	640.292916766202	0.0	1073.952656880867	638.550138923252	0.0	1094.0529692582804	659.8799053932698	0.0	1096.2209573709663	655.8658091738519	0.0	1097.8376491277759	624.9078893114108	0.0	1053.7965631296613	576.3927025075828	0.0	1044.5224467282026	689.9172595336167	0.0	1151.3245766552577	647.0366819332988	0.0	1170.2910011171764	686.8390694546823	0.0	1172.3847586227348	680.997710257938	0.0	1160.7254027259994	635.3670435999198	0.0	913.7472723407293	527.03076020578	0.0	851.2204822583626	567.176123190044	0.0	894.27354008317	565.9183509863637	0.0	928.025302535903	509.54547541908926	0.0	938.4049803936177	592.4415900442525	0.0	946.332864086269	666.4870689770493	0.0	927.094087869425	520.338118643253	0.0	939.1301287352421	592.8593706900134	0.0	947.4759245245855	656.0134657296245	0.0
425	17.03046594982079	1046.2430036538267	575.1252746202123	0.0	1037.8590954890647	576.4233471434397	0.0	972.9531497390498	640.3032202131163	0.0	1073.78582846562	638.7352601902311	0.0	1092.9665636663453	660.8175933490347	0.0	1096.2608945078593	656.3081002482406	0.0	1097.4521804589674	624.8257388554969	0.0	1053.9252092239271	576.0847216707944	0.0	1044.7308497850252	689.8966050589564	0.0	1151.8525646299522	647.0394109207914	0.0	1170.9953375707034	686.7690994444488	0.0	1172.3649441353668	680.1612491481014	0.0	1160.8364780967895	635.064885932699	0.0	913.5917199967321	527.1257949750948	0.0	851.1954598543746	567.2584470983464	0.0	894.3465284206801	566.003221373537	0.0	926.9647272999983	508.83174253147354	0.0	941.1739337702916	591.2809921869074	0.0	946.6894945725096	666.6086394137578	0.0	927.0739946102372	520.4853486573576	0.0	938.6253191844539	592.836794896864	0.0	947.5130556012359	657.2512414468887	0.0
